<svg id="Capa_1" enable-background="new 0 0 511.996 511.996" height="512" viewBox="0 0 511.996 511.996" width="512" xmlns="http://www.w3.org/2000/svg"><g><path d="m511.996 136.996-31.691-27.274 21.175-45.749-49.027-4.43-4.43-49.027-45.749 21.175-27.274-31.691-27.274 31.691-45.749-21.175-4.43 49.027-49.027 4.43 20.677 44.673-40.244 28.35 21.293 15h-130.246v-45c0-24.813-20.187-45-45-45h-75v30h75c8.271 0 15 6.729 15 15v225h-15c-24.813 0-45 20.187-45 45s20.187 45 45 45h345v-30h-345c-8.271 0-15-6.729-15-15s6.729-15 15-15h296.711l28.789-115.153 2.85-4.045 44.673 20.677 4.43-49.027 49.027-4.43-21.175-45.749zm-391.996 195v-150h141.491l-12.971 28.023 49.027 4.43 4.43 49.027 44.673-20.677 17.667 25.08-16.029 64.118h-228.288zm336.366-148.023-31.54 2.85-2.85 31.54-28.739-13.302-18.237 25.888-18.238-25.89-28.739 13.302-2.85-31.54-31.54-2.85 13.302-28.739-25.89-18.238 25.89-18.238-13.302-28.739 31.54-2.85 2.85-31.54 27.663 12.804 19.314-22.44 19.314 22.442 27.663-12.804 2.85 31.54 31.54 2.85-12.804 27.663 22.442 19.314-22.442 19.314z"/><path d="m300 466.996c0 24.813 20.187 45 45 45s45-20.187 45-45-20.187-45-45-45-45 20.187-45 45zm45-15c8.271 0 15 6.729 15 15s-6.729 15-15 15-15-6.729-15-15 6.729-15 15-15z"/><path d="m90 466.996c0 24.813 20.187 45 45 45s45-20.187 45-45-20.187-45-45-45-45 20.187-45 45zm45-15c8.271 0 15 6.729 15 15s-6.729 15-15 15-15-6.729-15-15 6.729-15 15-15z"/><path d="m317.573 121.995h114.853v30h-114.853z" transform="matrix(.707 -.707 .707 .707 12.964 305.29)"/><path d="m390 151.996h30v30h-30z"/><path d="m330 91.996h30v30h-30z"/></g></svg>